# xmcd
#
# Track frame offsets:
#	150
#	24287
#	38420
#	57587
#	76774
#	96975
#	112247
#	127033
#	138373
#	158322
#	176587
#	195487
#	217198
#	242321
#	263124
#	281066
#
# Disc length: 3957 seconds
#
# Revision: 0
# Processed by: cddbd v1.5.2PL0 Copyright (c) Steve Scherf et al.
# Submitted via: dBpowerAMP V4.0
#
DISCID=d80f7310
DTITLE=bonethugs - just vibe
DYEAR=2007
DGENRE=Blues
TTITLE0=gh
TTITLE1=rjrg
TTITLE2=erhfgh
TTITLE3=dfsdfgadg
TTITLE4=gsadfgsdg
TTITLE5=dfgdsafg
TTITLE6=sdfgsdfg
TTITLE7=sdfgasdfg
TTITLE8=dfsgdasfg
TTITLE9=fdgadsfg
TTITLE10=bone thugs
TTITLE11=dsfgsdfg
TTITLE12=dfsgdsafg
TTITLE13=dfsgdsfg
TTITLE14=dfgdfsg
TTITLE15=fgddf
EXTD=
EXTT0=
EXTT1=
EXTT2=
EXTT3=
EXTT4=
EXTT5=
EXTT6=
EXTT7=
EXTT8=
EXTT9=
EXTT10=
EXTT11=
EXTT12=
EXTT13=
EXTT14=
EXTT15=
PLAYORDER=
